<mxfile host="Electron" modified="2023-04-05T13:05:54.684Z" agent="Mozilla/5.0 (X11; Linux x86_64) AppleWebKit/537.36 (KHTML, like Gecko) draw.io/21.1.2 Chrome/106.0.5249.199 Electron/21.4.3 Safari/537.36" etag="VNahAQYUl2KLA6GKPchj" version="21.1.2" type="device">
  <diagram name="Page-1" id="dvSMB8JhBH4-M84VTnKU">
    <mxGraphModel dx="2610" dy="1098" grid="1" gridSize="10" guides="1" tooltips="1" connect="1" arrows="1" fold="1" page="1" pageScale="1" pageWidth="827" pageHeight="1169" math="0" shadow="0">
      <root>
        <mxCell id="0" />
        <mxCell id="1" parent="0" />
        <mxCell id="1px5jsY5OoGU7XA_kLLC-2" value="generate_mask()" style="rounded=0;whiteSpace=wrap;html=1;" vertex="1" parent="1">
          <mxGeometry x="500" y="170" width="120" height="60" as="geometry" />
        </mxCell>
        <mxCell id="1px5jsY5OoGU7XA_kLLC-5" value="model.filter_and_interp_midlines()" style="rounded=0;whiteSpace=wrap;html=1;" vertex="1" parent="1">
          <mxGeometry x="-120" y="170" width="200" height="60" as="geometry" />
        </mxCell>
        <mxCell id="1px5jsY5OoGU7XA_kLLC-9" value="model.make_naca()" style="rounded=0;whiteSpace=wrap;html=1;" vertex="1" parent="1">
          <mxGeometry x="370" y="270" width="140" height="60" as="geometry" />
        </mxCell>
        <mxCell id="1px5jsY5OoGU7XA_kLLC-10" value="outline_to_mask()" style="rounded=0;whiteSpace=wrap;html=1;" vertex="1" parent="1">
          <mxGeometry x="605" y="260" width="140" height="60" as="geometry" />
        </mxCell>
        <mxCell id="1px5jsY5OoGU7XA_kLLC-11" value="indices_to_maskarray()" style="rounded=0;whiteSpace=wrap;html=1;" vertex="1" parent="1">
          <mxGeometry x="590" y="360" width="140" height="60" as="geometry" />
        </mxCell>
        <mxCell id="1px5jsY5OoGU7XA_kLLC-12" value="pad_ones()" style="rounded=0;whiteSpace=wrap;html=1;" vertex="1" parent="1">
          <mxGeometry x="760" y="360" width="140" height="60" as="geometry" />
        </mxCell>
        <mxCell id="1px5jsY5OoGU7XA_kLLC-14" value="ut.create_h5_file()" style="rounded=0;whiteSpace=wrap;html=1;" vertex="1" parent="1">
          <mxGeometry x="-640" y="170" width="120" height="60" as="geometry" />
        </mxCell>
        <mxCell id="1px5jsY5OoGU7XA_kLLC-15" value="main()" style="rounded=0;whiteSpace=wrap;html=1;" vertex="1" parent="1">
          <mxGeometry x="-620" y="30" width="120" height="60" as="geometry" />
        </mxCell>
        <mxCell id="1px5jsY5OoGU7XA_kLLC-16" value="set_all_setup_attrs()" style="rounded=0;whiteSpace=wrap;html=1;" vertex="1" parent="1">
          <mxGeometry x="-480" y="170" width="120" height="60" as="geometry" />
        </mxCell>
        <mxCell id="1px5jsY5OoGU7XA_kLLC-17" value="seg.compute_midlines()" style="rounded=0;whiteSpace=wrap;html=1;" vertex="1" parent="1">
          <mxGeometry x="-315" y="170" width="160" height="60" as="geometry" />
        </mxCell>
        <mxCell id="1px5jsY5OoGU7XA_kLLC-18" value="mask_frame()" style="rounded=0;whiteSpace=wrap;html=1;" vertex="1" parent="1">
          <mxGeometry x="745" y="170" width="120" height="60" as="geometry" />
        </mxCell>
        <mxCell id="1px5jsY5OoGU7XA_kLLC-19" value="ut.save_fullsized_PNG_to_folder" style="rounded=0;whiteSpace=wrap;html=1;" vertex="1" parent="1">
          <mxGeometry x="915" y="170" width="190" height="60" as="geometry" />
        </mxCell>
        <mxCell id="1px5jsY5OoGU7XA_kLLC-20" value="plot_visible_overlay()" style="rounded=0;whiteSpace=wrap;html=1;" vertex="1" parent="1">
          <mxGeometry x="1125" y="170" width="140" height="60" as="geometry" />
        </mxCell>
        <mxCell id="1px5jsY5OoGU7XA_kLLC-21" value="model.compute_aoa_single()" style="rounded=0;whiteSpace=wrap;html=1;" vertex="1" parent="1">
          <mxGeometry x="1281" y="170" width="174" height="60" as="geometry" />
        </mxCell>
        <mxCell id="1px5jsY5OoGU7XA_kLLC-22" value="model.compute_aoa_error" style="rounded=0;whiteSpace=wrap;html=1;" vertex="1" parent="1">
          <mxGeometry x="1475" y="170" width="170" height="60" as="geometry" />
        </mxCell>
        <mxCell id="1px5jsY5OoGU7XA_kLLC-23" value="ut.create_data_entry_dict()" style="rounded=0;whiteSpace=wrap;html=1;" vertex="1" parent="1">
          <mxGeometry x="1665" y="170" width="170" height="60" as="geometry" />
        </mxCell>
        <mxCell id="1px5jsY5OoGU7XA_kLLC-24" value="ut.save_to_h5" style="rounded=0;whiteSpace=wrap;html=1;" vertex="1" parent="1">
          <mxGeometry x="1865" y="170" width="120" height="60" as="geometry" />
        </mxCell>
        <mxCell id="1px5jsY5OoGU7XA_kLLC-26" value="model._filter_midlines" style="rounded=0;whiteSpace=wrap;html=1;" vertex="1" parent="1">
          <mxGeometry x="-206" y="260" width="136" height="60" as="geometry" />
        </mxCell>
        <mxCell id="1px5jsY5OoGU7XA_kLLC-27" value="model._interpolate_midlines_timewise" style="rounded=0;whiteSpace=wrap;html=1;" vertex="1" parent="1">
          <mxGeometry x="-36" y="260" width="226" height="60" as="geometry" />
        </mxCell>
        <mxCell id="1px5jsY5OoGU7XA_kLLC-28" value="ut.butter_lowpass_filter" style="rounded=0;whiteSpace=wrap;html=1;" vertex="1" parent="1">
          <mxGeometry x="-206" y="370" width="166" height="60" as="geometry" />
        </mxCell>
        <mxCell id="1px5jsY5OoGU7XA_kLLC-29" value="model.interpolate_midline_lengthwise" style="rounded=0;whiteSpace=wrap;html=1;" vertex="1" parent="1">
          <mxGeometry x="190" y="360" width="226" height="60" as="geometry" />
        </mxCell>
        <mxCell id="1px5jsY5OoGU7XA_kLLC-30" value="model.scaled_naca()" style="rounded=0;whiteSpace=wrap;html=1;" vertex="1" parent="1">
          <mxGeometry x="430" y="360" width="140" height="60" as="geometry" />
        </mxCell>
        <mxCell id="1px5jsY5OoGU7XA_kLLC-31" value="main()" style="rounded=0;whiteSpace=wrap;html=1;" vertex="1" parent="1">
          <mxGeometry x="-460" y="690" width="120" height="60" as="geometry" />
        </mxCell>
        <mxCell id="1px5jsY5OoGU7XA_kLLC-32" value="gd.provide_frame()" style="rounded=0;whiteSpace=wrap;html=1;" vertex="1" parent="1">
          <mxGeometry x="-560" y="800" width="120" height="60" as="geometry" />
        </mxCell>
        <mxCell id="1px5jsY5OoGU7XA_kLLC-34" value="setup_h5()" style="rounded=0;whiteSpace=wrap;html=1;" vertex="1" parent="1">
          <mxGeometry x="-720" y="800" width="120" height="60" as="geometry" />
        </mxCell>
        <mxCell id="1px5jsY5OoGU7XA_kLLC-35" value="seg.compute_midlines()&lt;br&gt;save_midlines()" style="rounded=0;whiteSpace=wrap;html=1;" vertex="1" parent="1">
          <mxGeometry x="-400" y="800" width="160" height="60" as="geometry" />
        </mxCell>
        <mxCell id="1px5jsY5OoGU7XA_kLLC-36" value="mod.compute_model()" style="rounded=0;whiteSpace=wrap;html=1;" vertex="1" parent="1">
          <mxGeometry x="-196" y="800" width="160" height="60" as="geometry" />
        </mxCell>
        <mxCell id="1px5jsY5OoGU7XA_kLLC-37" value="model.filter_and_interp_midlines()" style="rounded=0;whiteSpace=wrap;html=1;" vertex="1" parent="1">
          <mxGeometry x="-250" y="920" width="200" height="60" as="geometry" />
        </mxCell>
        <mxCell id="1px5jsY5OoGU7XA_kLLC-38" value="model.regression()" style="rounded=0;whiteSpace=wrap;html=1;" vertex="1" parent="1">
          <mxGeometry x="-30" y="920" width="200" height="60" as="geometry" />
        </mxCell>
        <mxCell id="1px5jsY5OoGU7XA_kLLC-39" value="model.make_naca()" style="rounded=0;whiteSpace=wrap;html=1;" vertex="1" parent="1">
          <mxGeometry x="190" y="920" width="140" height="60" as="geometry" />
        </mxCell>
        <mxCell id="1px5jsY5OoGU7XA_kLLC-40" value="model._filter_midlines" style="rounded=0;whiteSpace=wrap;html=1;" vertex="1" parent="1">
          <mxGeometry x="-300" y="1010" width="136" height="60" as="geometry" />
        </mxCell>
        <mxCell id="1px5jsY5OoGU7XA_kLLC-41" value="model._interpolate_midlines_timewise" style="rounded=0;whiteSpace=wrap;html=1;" vertex="1" parent="1">
          <mxGeometry x="-130" y="1010" width="226" height="60" as="geometry" />
        </mxCell>
        <mxCell id="1px5jsY5OoGU7XA_kLLC-42" value="ut.butter_lowpass_filter" style="rounded=0;whiteSpace=wrap;html=1;" vertex="1" parent="1">
          <mxGeometry x="-300" y="1120" width="166" height="60" as="geometry" />
        </mxCell>
        <mxCell id="1px5jsY5OoGU7XA_kLLC-44" value="model.scaled_naca()" style="rounded=0;whiteSpace=wrap;html=1;" vertex="1" parent="1">
          <mxGeometry x="180" y="1010" width="140" height="60" as="geometry" />
        </mxCell>
        <mxCell id="1px5jsY5OoGU7XA_kLLC-45" value="mask.mask()&lt;br&gt;plot_intermediates()&lt;br&gt;save_mask()" style="rounded=0;whiteSpace=wrap;html=1;" vertex="1" parent="1">
          <mxGeometry x="886" y="790" width="160" height="70" as="geometry" />
        </mxCell>
        <mxCell id="1px5jsY5OoGU7XA_kLLC-46" value="generate_mask()" style="rounded=0;whiteSpace=wrap;html=1;" vertex="1" parent="1">
          <mxGeometry x="799" y="920" width="120" height="60" as="geometry" />
        </mxCell>
        <mxCell id="1px5jsY5OoGU7XA_kLLC-47" value="outline_to_mask()" style="rounded=0;whiteSpace=wrap;html=1;" vertex="1" parent="1">
          <mxGeometry x="779" y="1050" width="140" height="60" as="geometry" />
        </mxCell>
        <mxCell id="1px5jsY5OoGU7XA_kLLC-48" value="mask_frame()" style="rounded=0;whiteSpace=wrap;html=1;" vertex="1" parent="1">
          <mxGeometry x="955" y="920" width="120" height="60" as="geometry" />
        </mxCell>
        <mxCell id="1px5jsY5OoGU7XA_kLLC-49" value="eval.evaluate_error()&lt;br&gt;save_error()" style="rounded=0;whiteSpace=wrap;html=1;" vertex="1" parent="1">
          <mxGeometry x="400" y="800" width="140" height="60" as="geometry" />
        </mxCell>
        <mxCell id="1px5jsY5OoGU7XA_kLLC-50" value="eval.compute_error()" style="rounded=0;whiteSpace=wrap;html=1;" vertex="1" parent="1">
          <mxGeometry x="402" y="920" width="140" height="60" as="geometry" />
        </mxCell>
      </root>
    </mxGraphModel>
  </diagram>
</mxfile>
